<?xml version="1.0" encoding="UTF-8" standalone="no"?>
<svg
   xmlns:dc="http://purl.org/dc/elements/1.1/"
   xmlns:cc="http://creativecommons.org/ns#"
   xmlns:rdf="http://www.w3.org/1999/02/22-rdf-syntax-ns#"
   xmlns:svg="http://www.w3.org/2000/svg"
   xmlns="http://www.w3.org/2000/svg"
   xmlns:sodipodi="http://sodipodi.sourceforge.net/DTD/sodipodi-0.dtd"
   xmlns:inkscape="http://www.inkscape.org/namespaces/inkscape"
   width="22"
   height="22"
   version="1.1"
   id="svg10"
   sodipodi:docname="start.svg"
   inkscape:version="0.92.2 5c3e80d, 2017-08-06">
  <metadata
     id="metadata16">
    <rdf:RDF>
      <cc:Work
         rdf:about="">
        <dc:format>image/svg+xml</dc:format>
        <dc:type
           rdf:resource="http://purl.org/dc/dcmitype/StillImage" />
      </cc:Work>
    </rdf:RDF>
  </metadata>
  <defs
     id="defs14" />
  <sodipodi:namedview
     pagecolor="#ffffff"
     bordercolor="#666666"
     borderopacity="1"
     objecttolerance="10"
     gridtolerance="10"
     guidetolerance="10"
     inkscape:pageopacity="0"
     inkscape:pageshadow="2"
     inkscape:window-width="1366"
     inkscape:window-height="732"
     id="namedview12"
     showgrid="false"
     inkscape:zoom="15.170654"
     inkscape:cx="-1.8576776"
     inkscape:cy="8.4445992"
     inkscape:window-x="0"
     inkscape:window-y="0"
     inkscape:window-maximized="1"
     inkscape:current-layer="g4500" />
  <g
     id="22-22-start-here-kde">
    <rect
       id="rect849"
       width="22"
       height="22"
       x="0"
       y="0"
       style="opacity:0.001;vector-effect:none;fill:#000000;fill-opacity:1;stroke:none;stroke-width:2.71573877;stroke-linecap:round;stroke-linejoin:round;stroke-miterlimit:4;stroke-dasharray:none;stroke-dashoffset:0;stroke-opacity:1" />
    <g
       id="g4500">
      <path
         id="path10"
         d="M 12.015625,2.9746094 9,3.5 V 13.886719 L 12,13.5 11.984375,8.8183594 15.523438,14 19,13.5 15,8.1367188 l 4.013672,-4.5 -3.519531,-0.6484376 -3.509766,4.5 z M 5.6738281,5.6269531 c -0.028972,0.00241 -0.056303,0.015109 -0.078125,0.037109 l -1.0351562,1.046875 c -0.04495,0.0453 -0.052447,0.1159219 -0.017578,0.1699219 l 1.25,1.9199218 C 5.5571593,9.2192619 5.3789844,9.6781034 5.2636719,10.158203 L 3.1054688,10.6875 C 3.0455625,10.7022 3,10.756359 3,10.818359 V 11.5 12.181641 c 0,0.062 0.045563,0.116159 0.1054688,0.130859 l 2.1582031,0.529297 c 0.1153125,0.4801 0.2934874,0.938942 0.5292969,1.357422 l -1.25,1.919922 c -0.034868,0.054 -0.027372,0.124623 0.017578,0.169921 l 1.0351562,1.046876 c 0.043643,0.044 0.1113563,0.04763 0.1640625,0.01562 L 7.71875,16.150391 c 0.3843281,0.2239 0.9855094,0.404037 1.4238281,0.523437 l 0.4589844,2.216797 C 9.614313,18.954629 9.6651406,19 9.7285156,19 H 10.5 11.271484 c 0.06338,0 0.114202,-0.04537 0.126954,-0.109375 l 0.458984,-2.216797 c 0.438319,-0.1194 1.039502,-0.299537 1.423828,-0.523437 l 1.958984,1.201171 c 0.05271,0.032 0.120422,0.02838 0.164063,-0.01562 l 1.035156,-1.046876 c 0.04495,-0.0453 0.05245,-0.115921 0.01758,-0.169921 l -1.041015,-1.59961 -0.128907,0.01953 -0.730468,-1.070312 c -0.746065,1.563963 -2.323843,2.560614 -4.056641,2.5625 -2.4852814,0 -4.5,-2.014719 -4.5,-4.5 C 6.00144,9.823124 6.9698489,8.263073 8.5,7.5039062 V 6.5214844 C 8.2147616,6.6165864 7.9344885,6.7239255 7.71875,6.8496094 L 5.7597656,5.6484375 c -0.026353,-0.016 -0.056965,-0.023891 -0.085937,-0.021484 z"
         style="fill:#f2777a;fill-opacity:1" />
    </g>
  </g>
</svg>
